<svg height="512" viewBox="0 0 64 64" width="512" xmlns="http://www.w3.org/2000/svg"><circle cx="37" cy="8" fill="#57a4ff" r="6"/><circle cx="21" cy="51" fill="#57a4ff" r="6"/><circle cx="24" cy="11" fill="#57a4ff" r="2"/><circle cx="36" cy="20" fill="#57a4ff" r="2"/><circle cx="37" cy="34" fill="#57a4ff" r="2"/><circle cx="11" cy="45" fill="#57a4ff" r="2"/><circle cx="28" cy="60" fill="#57a4ff" r="2"/><g fill="#004fac"><path d="M19 42A13 13 0 106 29a13.015 13.015 0 0013 13zm0-24A11 11 0 118 29a11.013 11.013 0 0111-11z"/><path d="M12 29a7.008 7.008 0 017-7 1 1 0 000-2 9.011 9.011 0 00-9 9 1 1 0 002 0zm31 8a13 13 0 1013 13 13.015 13.015 0 00-13-13zm0 24a11 11 0 1111-11 11.013 11.013 0 01-11 11z"/><path d="M43 41a9.011 9.011 0 00-9 9 1 1 0 002 0 7.008 7.008 0 017-7 1 1 0 000-2zm-6-26a7 7 0 10-7-7 7.008 7.008 0 007 7zm0-12a5 5 0 11-5 5 5.006 5.006 0 015-5z"/><path d="M35 8a2 2 0 012-2 1 1 0 000-2 4 4 0 00-4 4 1 1 0 002 0zm-7 43a7 7 0 10-7 7 7.008 7.008 0 007-7zm-7 5a5 5 0 115-5 5.006 5.006 0 01-5 5z"/><path d="M21 47a4 4 0 00-4 4 1 1 0 002 0 2 2 0 012-2 1 1 0 000-2zm19-21a9 9 0 109-9 9.011 9.011 0 00-9 9zm9-7a7 7 0 11-7 7 7.008 7.008 0 017-7z"/><path d="M45 27a1 1 0 001-1 3 3 0 013-3 1 1 0 000-2 5.006 5.006 0 00-5 5 1 1 0 001 1zM24 14a3 3 0 10-3-3 3 3 0 003 3zm0-4a1 1 0 11-1 1 1 1 0 011-1zm15 10a3 3 0 10-3 3 3 3 0 003-3zm-4 0a1 1 0 111 1 1 1 0 01-1-1zm2 17a3 3 0 10-3-3 3 3 0 003 3zm0-4a1 1 0 11-1 1 1 1 0 011-1zm-26 9a3 3 0 103 3 3 3 0 00-3-3zm0 4a1 1 0 111-1 1 1 0 01-1 1zm17 11a3 3 0 103 3 3 3 0 00-3-3zm0 4a1 1 0 111-1 1 1 0 01-1 1z"/></g></svg>