<svg height="512" viewBox="0 0 64 64" width="512" xmlns="http://www.w3.org/2000/svg"><circle cx="37" cy="8" fill="#57a4ff" r="6"/><circle cx="21" cy="51" fill="#57a4ff" r="6"/><circle cx="24" cy="11" fill="#57a4ff" r="2"/><circle cx="36" cy="20" fill="#57a4ff" r="2"/><circle cx="37" cy="34" fill="#57a4ff" r="2"/><circle cx="11" cy="45" fill="#57a4ff" r="2"/><circle cx="28" cy="60" fill="#57a4ff" r="2"/><g fill="#004fac"><path d="m19 42a13 13 0 1 0 -13-13 13.015 13.015 0 0 0 13 13zm0-24a11 11 0 1 1 -11 11 11.013 11.013 0 0 1 11-11z"/><path d="m12 29a7.008 7.008 0 0 1 7-7 1 1 0 0 0 0-2 9.011 9.011 0 0 0 -9 9 1 1 0 0 0 2 0z"/><path d="m43 37a13 13 0 1 0 13 13 13.015 13.015 0 0 0 -13-13zm0 24a11 11 0 1 1 11-11 11.013 11.013 0 0 1 -11 11z"/><path d="m43 41a9.011 9.011 0 0 0 -9 9 1 1 0 0 0 2 0 7.008 7.008 0 0 1 7-7 1 1 0 0 0 0-2z"/><path d="m37 15a7 7 0 1 0 -7-7 7.008 7.008 0 0 0 7 7zm0-12a5 5 0 1 1 -5 5 5.006 5.006 0 0 1 5-5z"/><path d="m35 8a2 2 0 0 1 2-2 1 1 0 0 0 0-2 4 4 0 0 0 -4 4 1 1 0 0 0 2 0z"/><path d="m28 51a7 7 0 1 0 -7 7 7.008 7.008 0 0 0 7-7zm-7 5a5 5 0 1 1 5-5 5.006 5.006 0 0 1 -5 5z"/><path d="m21 47a4 4 0 0 0 -4 4 1 1 0 0 0 2 0 2 2 0 0 1 2-2 1 1 0 0 0 0-2z"/><path d="m40 26a9 9 0 1 0 9-9 9.011 9.011 0 0 0 -9 9zm9-7a7 7 0 1 1 -7 7 7.008 7.008 0 0 1 7-7z"/><path d="m45 27a1 1 0 0 0 1-1 3 3 0 0 1 3-3 1 1 0 0 0 0-2 5.006 5.006 0 0 0 -5 5 1 1 0 0 0 1 1z"/><path d="m24 14a3 3 0 1 0 -3-3 3 3 0 0 0 3 3zm0-4a1 1 0 1 1 -1 1 1 1 0 0 1 1-1z"/><path d="m39 20a3 3 0 1 0 -3 3 3 3 0 0 0 3-3zm-4 0a1 1 0 1 1 1 1 1 1 0 0 1 -1-1z"/><path d="m37 37a3 3 0 1 0 -3-3 3 3 0 0 0 3 3zm0-4a1 1 0 1 1 -1 1 1 1 0 0 1 1-1z"/><path d="m11 42a3 3 0 1 0 3 3 3 3 0 0 0 -3-3zm0 4a1 1 0 1 1 1-1 1 1 0 0 1 -1 1z"/><path d="m28 57a3 3 0 1 0 3 3 3 3 0 0 0 -3-3zm0 4a1 1 0 1 1 1-1 1 1 0 0 1 -1 1z"/></g></svg>